solid atmosphere
facet normal 0.000000 1.000000 0.000000
outer loop
vertex 213.399994 32.500000 8.500000
vertex 212.500000 32.500000 14.500000
vertex 213.399994 32.500000 14.500000
endloop
endfacet
facet normal 0.000000 1.000000 0.000000
outer loop
vertex 212.500000 32.500000 14.500000
vertex 213.399994 32.500000 8.500000
vertex 212.500000 32.500000 8.500000
endloop
endfacet
facet normal 0.000000 1.000000 0.000000
outer loop
vertex 205.000000 32.500000 15.500000
vertex 205.000000 32.500000 7.500000
vertex 44.000000 32.500000 15.500000
endloop
endfacet
facet normal 0.000000 1.000000 0.000000
outer loop
vertex 44.000000 32.500000 15.500000
vertex 0.000000 32.500000 23.000000
vertex 44.000000 32.500000 23.000000
endloop
endfacet
facet normal 0.000000 1.000000 0.000000
outer loop
vertex 44.000000 32.500000 7.500000
vertex 44.000000 32.500000 15.500000
vertex 205.000000 32.500000 7.500000
endloop
endfacet
facet normal 0.000000 1.000000 0.000000
outer loop
vertex 44.000000 32.500000 7.500000
vertex 0.000000 32.500000 23.000000
vertex 44.000000 32.500000 15.500000
endloop
endfacet
facet normal 0.000000 1.000000 0.000000
outer loop
vertex 0.000000 32.500000 0.000000
vertex 44.000000 32.500000 7.500000
vertex 44.000000 32.500000 0.000000
endloop
endfacet
facet normal 0.000000 1.000000 0.000000
outer loop
vertex 44.000000 32.500000 7.500000
vertex 0.000000 32.500000 0.000000
vertex 0.000000 32.500000 23.000000
endloop
endfacet
facet normal -1.000000 0.000000 0.000000
outer loop
vertex 205.000000 32.500000 7.500000
vertex 205.000000 33.500000 15.500000
vertex 205.000000 33.500000 7.500000
endloop
endfacet
facet normal -1.000000 0.000000 0.000000
outer loop
vertex 205.000000 33.500000 15.500000
vertex 205.000000 32.500000 7.500000
vertex 205.000000 32.500000 15.500000
endloop
endfacet
facet normal 0.000000 0.000000 1.000000
outer loop
vertex 205.000000 32.500000 15.500000
vertex 220.000000 33.500000 15.500000
vertex 205.000000 33.500000 15.500000
endloop
endfacet
facet normal 0.000000 0.000000 1.000000
outer loop
vertex 220.000000 33.500000 15.500000
vertex 205.000000 32.500000 15.500000
vertex 220.000000 7.500000 15.500000
endloop
endfacet
facet normal 0.000000 0.000000 1.000000
outer loop
vertex 44.000000 7.500000 15.500000
vertex 205.000000 32.500000 15.500000
vertex 44.000000 32.500000 15.500000
endloop
endfacet
facet normal 0.000000 0.000000 1.000000
outer loop
vertex 205.000000 32.500000 15.500000
vertex 44.000000 7.500000 15.500000
vertex 220.000000 7.500000 15.500000
endloop
endfacet
facet normal 1.000000 0.000000 0.000000
outer loop
vertex 220.000000 7.500000 15.500000
vertex 220.000000 33.500000 7.500000
vertex 220.000000 33.500000 15.500000
endloop
endfacet
facet normal 1.000000 0.000000 0.000000
outer loop
vertex 220.000000 33.500000 7.500000
vertex 220.000000 7.500000 15.500000
vertex 220.000000 7.500000 7.500000
endloop
endfacet
facet normal 0.000000 0.000000 -1.000000
outer loop
vertex 220.000000 7.500000 7.500000
vertex 205.000000 32.500000 7.500000
vertex 220.000000 33.500000 7.500000
endloop
endfacet
facet normal 0.000000 0.000000 -1.000000
outer loop
vertex 44.000000 7.500000 7.500000
vertex 205.000000 32.500000 7.500000
vertex 220.000000 7.500000 7.500000
endloop
endfacet
facet normal 0.000000 0.000000 -1.000000
outer loop
vertex 205.000000 32.500000 7.500000
vertex 44.000000 7.500000 7.500000
vertex 44.000000 32.500000 7.500000
endloop
endfacet
facet normal 0.000000 0.000000 -1.000000
outer loop
vertex 220.000000 33.500000 7.500000
vertex 205.000000 32.500000 7.500000
vertex 205.000000 33.500000 7.500000
endloop
endfacet
facet normal 0.000000 1.000000 0.000000
outer loop
vertex 212.500000 33.500000 14.500000
vertex 220.000000 33.500000 15.500000
vertex 213.399994 33.500000 14.500000
endloop
endfacet
facet normal 0.000000 1.000000 0.000000
outer loop
vertex 220.000000 33.500000 15.500000
vertex 213.399994 33.500000 8.500000
vertex 213.399994 33.500000 14.500000
endloop
endfacet
facet normal 0.000000 1.000000 0.000000
outer loop
vertex 213.399994 33.500000 8.500000
vertex 220.000000 33.500000 7.500000
vertex 212.500000 33.500000 8.500000
endloop
endfacet
facet normal 0.000000 1.000000 0.000000
outer loop
vertex 220.000000 33.500000 7.500000
vertex 213.399994 33.500000 8.500000
vertex 220.000000 33.500000 15.500000
endloop
endfacet
facet normal 0.000000 1.000000 0.000000
outer loop
vertex 220.000000 33.500000 15.500000
vertex 212.500000 33.500000 14.500000
vertex 205.000000 33.500000 15.500000
endloop
endfacet
facet normal 0.000000 1.000000 0.000000
outer loop
vertex 212.500000 33.500000 8.500000
vertex 205.000000 33.500000 15.500000
vertex 212.500000 33.500000 14.500000
endloop
endfacet
facet normal 0.000000 1.000000 0.000000
outer loop
vertex 212.500000 33.500000 8.500000
vertex 205.000000 33.500000 7.500000
vertex 205.000000 33.500000 15.500000
endloop
endfacet
facet normal 0.000000 1.000000 0.000000
outer loop
vertex 205.000000 33.500000 7.500000
vertex 212.500000 33.500000 8.500000
vertex 220.000000 33.500000 7.500000
endloop
endfacet
facet normal 1.000000 0.000000 0.000000
outer loop
vertex 212.500000 32.500000 14.500000
vertex 212.500000 33.500000 8.500000
vertex 212.500000 33.500000 14.500000
endloop
endfacet
facet normal 1.000000 0.000000 0.000000
outer loop
vertex 212.500000 33.500000 8.500000
vertex 212.500000 32.500000 14.500000
vertex 212.500000 32.500000 8.500000
endloop
endfacet
facet normal 0.000000 0.000000 -1.000000
outer loop
vertex 212.500000 32.500000 14.500000
vertex 213.399994 33.500000 14.500000
vertex 213.399994 32.500000 14.500000
endloop
endfacet
facet normal 0.000000 0.000000 -1.000000
outer loop
vertex 213.399994 33.500000 14.500000
vertex 212.500000 32.500000 14.500000
vertex 212.500000 33.500000 14.500000
endloop
endfacet
facet normal -1.000000 0.000000 0.000000
outer loop
vertex 213.399994 32.500000 8.500000
vertex 213.399994 33.500000 14.500000
vertex 213.399994 33.500000 8.500000
endloop
endfacet
facet normal -1.000000 0.000000 0.000000
outer loop
vertex 213.399994 33.500000 14.500000
vertex 213.399994 32.500000 8.500000
vertex 213.399994 32.500000 14.500000
endloop
endfacet
facet normal 0.000000 0.000000 1.000000
outer loop
vertex 212.500000 33.500000 8.500000
vertex 213.399994 32.500000 8.500000
vertex 213.399994 33.500000 8.500000
endloop
endfacet
facet normal 0.000000 0.000000 1.000000
outer loop
vertex 213.399994 32.500000 8.500000
vertex 212.500000 33.500000 8.500000
vertex 212.500000 32.500000 8.500000
endloop
endfacet
facet normal 1.000000 0.000000 0.000000
outer loop
vertex 44.000000 32.500000 23.000000
vertex 44.000000 7.500000 15.500000
vertex 44.000000 32.500000 15.500000
endloop
endfacet
facet normal 1.000000 0.000000 0.000000
outer loop
vertex 44.000000 7.500000 15.500000
vertex 44.000000 0.000000 23.000000
vertex 44.000000 7.500000 7.500000
endloop
endfacet
facet normal 1.000000 0.000000 0.000000
outer loop
vertex 44.000000 0.000000 23.000000
vertex 44.000000 7.500000 15.500000
vertex 44.000000 32.500000 23.000000
endloop
endfacet
facet normal 1.000000 0.000000 0.000000
outer loop
vertex 44.000000 7.500000 7.500000
vertex 44.000000 32.500000 0.000000
vertex 44.000000 32.500000 7.500000
endloop
endfacet
facet normal 1.000000 0.000000 0.000000
outer loop
vertex 44.000000 7.500000 7.500000
vertex 44.000000 0.000000 0.000000
vertex 44.000000 32.500000 0.000000
endloop
endfacet
facet normal 1.000000 0.000000 0.000000
outer loop
vertex 44.000000 0.000000 0.000000
vertex 44.000000 7.500000 7.500000
vertex 44.000000 0.000000 23.000000
endloop
endfacet
facet normal 0.000000 -1.000000 0.000000
outer loop
vertex 44.000000 7.500000 7.500000
vertex 220.000000 7.500000 15.500000
vertex 44.000000 7.500000 15.500000
endloop
endfacet
facet normal 0.000000 -1.000000 0.000000
outer loop
vertex 220.000000 7.500000 15.500000
vertex 44.000000 7.500000 7.500000
vertex 220.000000 7.500000 7.500000
endloop
endfacet
facet normal -1.000000 0.000000 0.000000
outer loop
vertex 0.000000 0.000000 0.000000
vertex 0.000000 32.500000 23.000000
vertex 0.000000 32.500000 0.000000
endloop
endfacet
facet normal -1.000000 0.000000 0.000000
outer loop
vertex 0.000000 32.500000 23.000000
vertex 0.000000 0.000000 0.000000
vertex 0.000000 0.000000 23.000000
endloop
endfacet
facet normal 0.000000 0.000000 1.000000
outer loop
vertex 0.000000 32.500000 23.000000
vertex 44.000000 0.000000 23.000000
vertex 44.000000 32.500000 23.000000
endloop
endfacet
facet normal 0.000000 0.000000 1.000000
outer loop
vertex 44.000000 0.000000 23.000000
vertex 0.000000 32.500000 23.000000
vertex 0.000000 0.000000 23.000000
endloop
endfacet
facet normal 0.000000 0.000000 -1.000000
outer loop
vertex 0.000000 0.000000 0.000000
vertex 44.000000 32.500000 0.000000
vertex 44.000000 0.000000 0.000000
endloop
endfacet
facet normal 0.000000 0.000000 -1.000000
outer loop
vertex 44.000000 32.500000 0.000000
vertex 0.000000 0.000000 0.000000
vertex 0.000000 32.500000 0.000000
endloop
endfacet
facet normal 0.000000 -1.000000 0.000000
outer loop
vertex 0.000000 0.000000 0.000000
vertex 44.000000 0.000000 23.000000
vertex 0.000000 0.000000 23.000000
endloop
endfacet
facet normal 0.000000 -1.000000 0.000000
outer loop
vertex 44.000000 0.000000 23.000000
vertex 0.000000 0.000000 0.000000
vertex 44.000000 0.000000 0.000000
endloop
endfacet
endsolid atmosphere
solid allwall
facet normal 0.000000 1.000000 0.000000
outer loop
vertex 213.399994 32.500000 8.500000
vertex 212.500000 32.500000 14.500000
vertex 213.399994 32.500000 14.500000
endloop
endfacet
facet normal 0.000000 1.000000 0.000000
outer loop
vertex 212.500000 32.500000 14.500000
vertex 213.399994 32.500000 8.500000
vertex 212.500000 32.500000 8.500000
endloop
endfacet
facet normal 0.000000 1.000000 0.000000
outer loop
vertex 205.000000 32.500000 15.500000
vertex 205.000000 32.500000 7.500000
vertex 44.000000 32.500000 15.500000
endloop
endfacet
facet normal 0.000000 1.000000 0.000000
outer loop
vertex 44.000000 32.500000 15.500000
vertex 0.000000 32.500000 23.000000
vertex 44.000000 32.500000 23.000000
endloop
endfacet
facet normal 0.000000 1.000000 0.000000
outer loop
vertex 44.000000 32.500000 7.500000
vertex 44.000000 32.500000 15.500000
vertex 205.000000 32.500000 7.500000
endloop
endfacet
facet normal 0.000000 1.000000 0.000000
outer loop
vertex 44.000000 32.500000 7.500000
vertex 0.000000 32.500000 23.000000
vertex 44.000000 32.500000 15.500000
endloop
endfacet
facet normal 0.000000 1.000000 0.000000
outer loop
vertex 0.000000 32.500000 0.000000
vertex 44.000000 32.500000 7.500000
vertex 44.000000 32.500000 0.000000
endloop
endfacet
facet normal 0.000000 1.000000 0.000000
outer loop
vertex 44.000000 32.500000 7.500000
vertex 0.000000 32.500000 0.000000
vertex 0.000000 32.500000 23.000000
endloop
endfacet
facet normal -1.000000 0.000000 0.000000
outer loop
vertex 205.000000 32.500000 7.500000
vertex 205.000000 33.500000 15.500000
vertex 205.000000 33.500000 7.500000
endloop
endfacet
facet normal -1.000000 0.000000 0.000000
outer loop
vertex 205.000000 33.500000 15.500000
vertex 205.000000 32.500000 7.500000
vertex 205.000000 32.500000 15.500000
endloop
endfacet
facet normal 0.000000 0.000000 1.000000
outer loop
vertex 205.000000 32.500000 15.500000
vertex 220.000000 33.500000 15.500000
vertex 205.000000 33.500000 15.500000
endloop
endfacet
facet normal 0.000000 0.000000 1.000000
outer loop
vertex 220.000000 33.500000 15.500000
vertex 205.000000 32.500000 15.500000
vertex 220.000000 7.500000 15.500000
endloop
endfacet
facet normal 0.000000 0.000000 1.000000
outer loop
vertex 44.000000 7.500000 15.500000
vertex 205.000000 32.500000 15.500000
vertex 44.000000 32.500000 15.500000
endloop
endfacet
facet normal 0.000000 0.000000 1.000000
outer loop
vertex 205.000000 32.500000 15.500000
vertex 44.000000 7.500000 15.500000
vertex 220.000000 7.500000 15.500000
endloop
endfacet
facet normal 1.000000 0.000000 0.000000
outer loop
vertex 220.000000 7.500000 15.500000
vertex 220.000000 33.500000 7.500000
vertex 220.000000 33.500000 15.500000
endloop
endfacet
facet normal 1.000000 0.000000 0.000000
outer loop
vertex 220.000000 33.500000 7.500000
vertex 220.000000 7.500000 15.500000
vertex 220.000000 7.500000 7.500000
endloop
endfacet
facet normal 0.000000 0.000000 -1.000000
outer loop
vertex 220.000000 7.500000 7.500000
vertex 205.000000 32.500000 7.500000
vertex 220.000000 33.500000 7.500000
endloop
endfacet
facet normal 0.000000 0.000000 -1.000000
outer loop
vertex 44.000000 7.500000 7.500000
vertex 205.000000 32.500000 7.500000
vertex 220.000000 7.500000 7.500000
endloop
endfacet
facet normal 0.000000 0.000000 -1.000000
outer loop
vertex 205.000000 32.500000 7.500000
vertex 44.000000 7.500000 7.500000
vertex 44.000000 32.500000 7.500000
endloop
endfacet
facet normal 0.000000 0.000000 -1.000000
outer loop
vertex 220.000000 33.500000 7.500000
vertex 205.000000 32.500000 7.500000
vertex 205.000000 33.500000 7.500000
endloop
endfacet
facet normal 0.000000 1.000000 0.000000
outer loop
vertex 212.500000 33.500000 14.500000
vertex 220.000000 33.500000 15.500000
vertex 213.399994 33.500000 14.500000
endloop
endfacet
facet normal 0.000000 1.000000 0.000000
outer loop
vertex 220.000000 33.500000 15.500000
vertex 213.399994 33.500000 8.500000
vertex 213.399994 33.500000 14.500000
endloop
endfacet
facet normal 0.000000 1.000000 0.000000
outer loop
vertex 213.399994 33.500000 8.500000
vertex 220.000000 33.500000 7.500000
vertex 212.500000 33.500000 8.500000
endloop
endfacet
facet normal 0.000000 1.000000 0.000000
outer loop
vertex 220.000000 33.500000 7.500000
vertex 213.399994 33.500000 8.500000
vertex 220.000000 33.500000 15.500000
endloop
endfacet
facet normal 0.000000 1.000000 0.000000
outer loop
vertex 220.000000 33.500000 15.500000
vertex 212.500000 33.500000 14.500000
vertex 205.000000 33.500000 15.500000
endloop
endfacet
facet normal 0.000000 1.000000 0.000000
outer loop
vertex 212.500000 33.500000 8.500000
vertex 205.000000 33.500000 15.500000
vertex 212.500000 33.500000 14.500000
endloop
endfacet
facet normal 0.000000 1.000000 0.000000
outer loop
vertex 212.500000 33.500000 8.500000
vertex 205.000000 33.500000 7.500000
vertex 205.000000 33.500000 15.500000
endloop
endfacet
facet normal 0.000000 1.000000 0.000000
outer loop
vertex 205.000000 33.500000 7.500000
vertex 212.500000 33.500000 8.500000
vertex 220.000000 33.500000 7.500000
endloop
endfacet
facet normal 1.000000 0.000000 0.000000
outer loop
vertex 212.500000 32.500000 14.500000
vertex 212.500000 33.500000 8.500000
vertex 212.500000 33.500000 14.500000
endloop
endfacet
facet normal 1.000000 0.000000 0.000000
outer loop
vertex 212.500000 33.500000 8.500000
vertex 212.500000 32.500000 14.500000
vertex 212.500000 32.500000 8.500000
endloop
endfacet
facet normal 0.000000 0.000000 -1.000000
outer loop
vertex 212.500000 32.500000 14.500000
vertex 213.399994 33.500000 14.500000
vertex 213.399994 32.500000 14.500000
endloop
endfacet
facet normal 0.000000 0.000000 -1.000000
outer loop
vertex 213.399994 33.500000 14.500000
vertex 212.500000 32.500000 14.500000
vertex 212.500000 33.500000 14.500000
endloop
endfacet
facet normal -1.000000 0.000000 0.000000
outer loop
vertex 213.399994 32.500000 8.500000
vertex 213.399994 33.500000 14.500000
vertex 213.399994 33.500000 8.500000
endloop
endfacet
facet normal -1.000000 0.000000 0.000000
outer loop
vertex 213.399994 33.500000 14.500000
vertex 213.399994 32.500000 8.500000
vertex 213.399994 32.500000 14.500000
endloop
endfacet
facet normal 0.000000 0.000000 1.000000
outer loop
vertex 212.500000 33.500000 8.500000
vertex 213.399994 32.500000 8.500000
vertex 213.399994 33.500000 8.500000
endloop
endfacet
facet normal 0.000000 0.000000 1.000000
outer loop
vertex 213.399994 32.500000 8.500000
vertex 212.500000 33.500000 8.500000
vertex 212.500000 32.500000 8.500000
endloop
endfacet
facet normal 1.000000 0.000000 0.000000
outer loop
vertex 44.000000 32.500000 23.000000
vertex 44.000000 7.500000 15.500000
vertex 44.000000 32.500000 15.500000
endloop
endfacet
facet normal 1.000000 0.000000 0.000000
outer loop
vertex 44.000000 7.500000 15.500000
vertex 44.000000 0.000000 23.000000
vertex 44.000000 7.500000 7.500000
endloop
endfacet
facet normal 1.000000 0.000000 0.000000
outer loop
vertex 44.000000 0.000000 23.000000
vertex 44.000000 7.500000 15.500000
vertex 44.000000 32.500000 23.000000
endloop
endfacet
facet normal 1.000000 0.000000 0.000000
outer loop
vertex 44.000000 7.500000 7.500000
vertex 44.000000 32.500000 0.000000
vertex 44.000000 32.500000 7.500000
endloop
endfacet
facet normal 1.000000 0.000000 0.000000
outer loop
vertex 44.000000 7.500000 7.500000
vertex 44.000000 0.000000 0.000000
vertex 44.000000 32.500000 0.000000
endloop
endfacet
facet normal 1.000000 0.000000 0.000000
outer loop
vertex 44.000000 0.000000 0.000000
vertex 44.000000 7.500000 7.500000
vertex 44.000000 0.000000 23.000000
endloop
endfacet
facet normal 0.000000 -1.000000 0.000000
outer loop
vertex 44.000000 7.500000 7.500000
vertex 220.000000 7.500000 15.500000
vertex 44.000000 7.500000 15.500000
endloop
endfacet
facet normal 0.000000 -1.000000 0.000000
outer loop
vertex 220.000000 7.500000 15.500000
vertex 44.000000 7.500000 7.500000
vertex 220.000000 7.500000 7.500000
endloop
endfacet
facet normal -1.000000 0.000000 0.000000
outer loop
vertex 0.000000 0.000000 0.000000
vertex 0.000000 32.500000 23.000000
vertex 0.000000 32.500000 0.000000
endloop
endfacet
facet normal -1.000000 0.000000 0.000000
outer loop
vertex 0.000000 32.500000 23.000000
vertex 0.000000 0.000000 0.000000
vertex 0.000000 0.000000 23.000000
endloop
endfacet
facet normal 0.000000 0.000000 1.000000
outer loop
vertex 0.000000 32.500000 23.000000
vertex 44.000000 0.000000 23.000000
vertex 44.000000 32.500000 23.000000
endloop
endfacet
facet normal 0.000000 0.000000 1.000000
outer loop
vertex 44.000000 0.000000 23.000000
vertex 0.000000 32.500000 23.000000
vertex 0.000000 0.000000 23.000000
endloop
endfacet
facet normal 0.000000 0.000000 -1.000000
outer loop
vertex 0.000000 0.000000 0.000000
vertex 44.000000 32.500000 0.000000
vertex 44.000000 0.000000 0.000000
endloop
endfacet
facet normal 0.000000 0.000000 -1.000000
outer loop
vertex 44.000000 32.500000 0.000000
vertex 0.000000 0.000000 0.000000
vertex 0.000000 32.500000 0.000000
endloop
endfacet
facet normal 0.000000 -1.000000 0.000000
outer loop
vertex 0.000000 0.000000 0.000000
vertex 44.000000 0.000000 23.000000
vertex 0.000000 0.000000 23.000000
endloop
endfacet
facet normal 0.000000 -1.000000 0.000000
outer loop
vertex 44.000000 0.000000 23.000000
vertex 0.000000 0.000000 0.000000
vertex 44.000000 0.000000 0.000000
endloop
endfacet
endsolid allwall
solid outlet
facet normal 0.000000 1.000000 0.000000
outer loop
vertex 213.399994 32.500000 8.500000
vertex 212.500000 32.500000 14.500000
vertex 213.399994 32.500000 14.500000
endloop
endfacet
facet normal 0.000000 1.000000 0.000000
outer loop
vertex 212.500000 32.500000 14.500000
vertex 213.399994 32.500000 8.500000
vertex 212.500000 32.500000 8.500000
endloop
endfacet
facet normal 0.000000 1.000000 0.000000
outer loop
vertex 205.000000 32.500000 15.500000
vertex 205.000000 32.500000 7.500000
vertex 44.000000 32.500000 15.500000
endloop
endfacet
facet normal 0.000000 1.000000 0.000000
outer loop
vertex 44.000000 32.500000 15.500000
vertex 0.000000 32.500000 23.000000
vertex 44.000000 32.500000 23.000000
endloop
endfacet
facet normal 0.000000 1.000000 0.000000
outer loop
vertex 44.000000 32.500000 7.500000
vertex 44.000000 32.500000 15.500000
vertex 205.000000 32.500000 7.500000
endloop
endfacet
facet normal 0.000000 1.000000 0.000000
outer loop
vertex 44.000000 32.500000 7.500000
vertex 0.000000 32.500000 23.000000
vertex 44.000000 32.500000 15.500000
endloop
endfacet
facet normal 0.000000 1.000000 0.000000
outer loop
vertex 0.000000 32.500000 0.000000
vertex 44.000000 32.500000 7.500000
vertex 44.000000 32.500000 0.000000
endloop
endfacet
facet normal 0.000000 1.000000 0.000000
outer loop
vertex 44.000000 32.500000 7.500000
vertex 0.000000 32.500000 0.000000
vertex 0.000000 32.500000 23.000000
endloop
endfacet
facet normal -1.000000 0.000000 0.000000
outer loop
vertex 205.000000 32.500000 7.500000
vertex 205.000000 33.500000 15.500000
vertex 205.000000 33.500000 7.500000
endloop
endfacet
facet normal -1.000000 0.000000 0.000000
outer loop
vertex 205.000000 33.500000 15.500000
vertex 205.000000 32.500000 7.500000
vertex 205.000000 32.500000 15.500000
endloop
endfacet
facet normal 0.000000 0.000000 1.000000
outer loop
vertex 205.000000 32.500000 15.500000
vertex 220.000000 33.500000 15.500000
vertex 205.000000 33.500000 15.500000
endloop
endfacet
facet normal 0.000000 0.000000 1.000000
outer loop
vertex 220.000000 33.500000 15.500000
vertex 205.000000 32.500000 15.500000
vertex 220.000000 7.500000 15.500000
endloop
endfacet
facet normal 0.000000 0.000000 1.000000
outer loop
vertex 44.000000 7.500000 15.500000
vertex 205.000000 32.500000 15.500000
vertex 44.000000 32.500000 15.500000
endloop
endfacet
facet normal 0.000000 0.000000 1.000000
outer loop
vertex 205.000000 32.500000 15.500000
vertex 44.000000 7.500000 15.500000
vertex 220.000000 7.500000 15.500000
endloop
endfacet
facet normal 1.000000 0.000000 0.000000
outer loop
vertex 220.000000 7.500000 15.500000
vertex 220.000000 33.500000 7.500000
vertex 220.000000 33.500000 15.500000
endloop
endfacet
facet normal 1.000000 0.000000 0.000000
outer loop
vertex 220.000000 33.500000 7.500000
vertex 220.000000 7.500000 15.500000
vertex 220.000000 7.500000 7.500000
endloop
endfacet
facet normal 0.000000 0.000000 -1.000000
outer loop
vertex 220.000000 7.500000 7.500000
vertex 205.000000 32.500000 7.500000
vertex 220.000000 33.500000 7.500000
endloop
endfacet
facet normal 0.000000 0.000000 -1.000000
outer loop
vertex 44.000000 7.500000 7.500000
vertex 205.000000 32.500000 7.500000
vertex 220.000000 7.500000 7.500000
endloop
endfacet
facet normal 0.000000 0.000000 -1.000000
outer loop
vertex 205.000000 32.500000 7.500000
vertex 44.000000 7.500000 7.500000
vertex 44.000000 32.500000 7.500000
endloop
endfacet
facet normal 0.000000 0.000000 -1.000000
outer loop
vertex 220.000000 33.500000 7.500000
vertex 205.000000 32.500000 7.500000
vertex 205.000000 33.500000 7.500000
endloop
endfacet
facet normal 0.000000 1.000000 0.000000
outer loop
vertex 212.500000 33.500000 14.500000
vertex 220.000000 33.500000 15.500000
vertex 213.399994 33.500000 14.500000
endloop
endfacet
facet normal 0.000000 1.000000 0.000000
outer loop
vertex 220.000000 33.500000 15.500000
vertex 213.399994 33.500000 8.500000
vertex 213.399994 33.500000 14.500000
endloop
endfacet
facet normal 0.000000 1.000000 0.000000
outer loop
vertex 213.399994 33.500000 8.500000
vertex 220.000000 33.500000 7.500000
vertex 212.500000 33.500000 8.500000
endloop
endfacet
facet normal 0.000000 1.000000 0.000000
outer loop
vertex 220.000000 33.500000 7.500000
vertex 213.399994 33.500000 8.500000
vertex 220.000000 33.500000 15.500000
endloop
endfacet
facet normal 0.000000 1.000000 0.000000
outer loop
vertex 220.000000 33.500000 15.500000
vertex 212.500000 33.500000 14.500000
vertex 205.000000 33.500000 15.500000
endloop
endfacet
facet normal 0.000000 1.000000 0.000000
outer loop
vertex 212.500000 33.500000 8.500000
vertex 205.000000 33.500000 15.500000
vertex 212.500000 33.500000 14.500000
endloop
endfacet
facet normal 0.000000 1.000000 0.000000
outer loop
vertex 212.500000 33.500000 8.500000
vertex 205.000000 33.500000 7.500000
vertex 205.000000 33.500000 15.500000
endloop
endfacet
facet normal 0.000000 1.000000 0.000000
outer loop
vertex 205.000000 33.500000 7.500000
vertex 212.500000 33.500000 8.500000
vertex 220.000000 33.500000 7.500000
endloop
endfacet
facet normal 1.000000 0.000000 0.000000
outer loop
vertex 212.500000 32.500000 14.500000
vertex 212.500000 33.500000 8.500000
vertex 212.500000 33.500000 14.500000
endloop
endfacet
facet normal 1.000000 0.000000 0.000000
outer loop
vertex 212.500000 33.500000 8.500000
vertex 212.500000 32.500000 14.500000
vertex 212.500000 32.500000 8.500000
endloop
endfacet
facet normal 0.000000 0.000000 -1.000000
outer loop
vertex 212.500000 32.500000 14.500000
vertex 213.399994 33.500000 14.500000
vertex 213.399994 32.500000 14.500000
endloop
endfacet
facet normal 0.000000 0.000000 -1.000000
outer loop
vertex 213.399994 33.500000 14.500000
vertex 212.500000 32.500000 14.500000
vertex 212.500000 33.500000 14.500000
endloop
endfacet
facet normal -1.000000 0.000000 0.000000
outer loop
vertex 213.399994 32.500000 8.500000
vertex 213.399994 33.500000 14.500000
vertex 213.399994 33.500000 8.500000
endloop
endfacet
facet normal -1.000000 0.000000 0.000000
outer loop
vertex 213.399994 33.500000 14.500000
vertex 213.399994 32.500000 8.500000
vertex 213.399994 32.500000 14.500000
endloop
endfacet
facet normal 0.000000 0.000000 1.000000
outer loop
vertex 212.500000 33.500000 8.500000
vertex 213.399994 32.500000 8.500000
vertex 213.399994 33.500000 8.500000
endloop
endfacet
facet normal 0.000000 0.000000 1.000000
outer loop
vertex 213.399994 32.500000 8.500000
vertex 212.500000 33.500000 8.500000
vertex 212.500000 32.500000 8.500000
endloop
endfacet
facet normal 1.000000 0.000000 0.000000
outer loop
vertex 44.000000 32.500000 23.000000
vertex 44.000000 7.500000 15.500000
vertex 44.000000 32.500000 15.500000
endloop
endfacet
facet normal 1.000000 0.000000 0.000000
outer loop
vertex 44.000000 7.500000 15.500000
vertex 44.000000 0.000000 23.000000
vertex 44.000000 7.500000 7.500000
endloop
endfacet
facet normal 1.000000 0.000000 0.000000
outer loop
vertex 44.000000 0.000000 23.000000
vertex 44.000000 7.500000 15.500000
vertex 44.000000 32.500000 23.000000
endloop
endfacet
facet normal 1.000000 0.000000 0.000000
outer loop
vertex 44.000000 7.500000 7.500000
vertex 44.000000 32.500000 0.000000
vertex 44.000000 32.500000 7.500000
endloop
endfacet
facet normal 1.000000 0.000000 0.000000
outer loop
vertex 44.000000 7.500000 7.500000
vertex 44.000000 0.000000 0.000000
vertex 44.000000 32.500000 0.000000
endloop
endfacet
facet normal 1.000000 0.000000 0.000000
outer loop
vertex 44.000000 0.000000 0.000000
vertex 44.000000 7.500000 7.500000
vertex 44.000000 0.000000 23.000000
endloop
endfacet
facet normal 0.000000 -1.000000 0.000000
outer loop
vertex 44.000000 7.500000 7.500000
vertex 220.000000 7.500000 15.500000
vertex 44.000000 7.500000 15.500000
endloop
endfacet
facet normal 0.000000 -1.000000 0.000000
outer loop
vertex 220.000000 7.500000 15.500000
vertex 44.000000 7.500000 7.500000
vertex 220.000000 7.500000 7.500000
endloop
endfacet
facet normal -1.000000 0.000000 0.000000
outer loop
vertex 0.000000 0.000000 0.000000
vertex 0.000000 32.500000 23.000000
vertex 0.000000 32.500000 0.000000
endloop
endfacet
facet normal -1.000000 0.000000 0.000000
outer loop
vertex 0.000000 32.500000 23.000000
vertex 0.000000 0.000000 0.000000
vertex 0.000000 0.000000 23.000000
endloop
endfacet
facet normal 0.000000 0.000000 1.000000
outer loop
vertex 0.000000 32.500000 23.000000
vertex 44.000000 0.000000 23.000000
vertex 44.000000 32.500000 23.000000
endloop
endfacet
facet normal 0.000000 0.000000 1.000000
outer loop
vertex 44.000000 0.000000 23.000000
vertex 0.000000 32.500000 23.000000
vertex 0.000000 0.000000 23.000000
endloop
endfacet
facet normal 0.000000 0.000000 -1.000000
outer loop
vertex 0.000000 0.000000 0.000000
vertex 44.000000 32.500000 0.000000
vertex 44.000000 0.000000 0.000000
endloop
endfacet
facet normal 0.000000 0.000000 -1.000000
outer loop
vertex 44.000000 32.500000 0.000000
vertex 0.000000 0.000000 0.000000
vertex 0.000000 32.500000 0.000000
endloop
endfacet
facet normal 0.000000 -1.000000 0.000000
outer loop
vertex 0.000000 0.000000 0.000000
vertex 44.000000 0.000000 23.000000
vertex 0.000000 0.000000 23.000000
endloop
endfacet
facet normal 0.000000 -1.000000 0.000000
outer loop
vertex 44.000000 0.000000 23.000000
vertex 0.000000 0.000000 0.000000
vertex 44.000000 0.000000 0.000000
endloop
endfacet
endsolid outlet
