solid Exported from Blender-2.78 (sub 0)
facet normal 0.000000 1.000000 0.000000
outer loop
vertex 1.710000 0.324999 0.158000
vertex 1.710000 0.324999 0.078000
vertex 0.439999 0.324999 0.158000
endloop
endfacet
facet normal 0.000000 1.000000 0.000000
outer loop
vertex 0.439999 0.324999 0.158000
vertex 0.000001 0.324999 0.235999
vertex 0.439999 0.324999 0.235999
endloop
endfacet
facet normal 0.000000 1.000000 0.000000
outer loop
vertex 0.439999 0.324999 0.078000
vertex 0.439999 0.324999 0.158000
vertex 1.710000 0.324999 0.078000
endloop
endfacet
facet normal 0.000000 1.000000 0.000000
outer loop
vertex 0.439999 0.324999 0.078000
vertex 0.000001 0.324999 0.235999
vertex 0.439999 0.324999 0.158000
endloop
endfacet
facet normal 0.000000 1.000000 0.000000
outer loop
vertex 0.000001 0.324999 0.000001
vertex 0.439999 0.324999 0.078000
vertex 0.439999 0.324999 0.000001
endloop
endfacet
facet normal 0.000000 1.000000 0.000000
outer loop
vertex 0.439999 0.324999 0.078000
vertex 0.000001 0.324999 0.000001
vertex 0.000001 0.324999 0.235999
endloop
endfacet
endsolid Exported from Blender-2.78 (sub 0)
