solid Exported from Blender-2.78 (sub 0)
facet normal 0.000000 1.000000 0.000000
outer loop
vertex 1.759390 0.639000 0.124237
vertex 1.758610 0.639000 0.124237
vertex 1.759000 0.639000 0.124249
endloop
endfacet
facet normal 0.000000 1.000000 0.000000
outer loop
vertex 1.759780 0.639000 0.124200
vertex 1.758610 0.639000 0.124237
vertex 1.759390 0.639000 0.124237
endloop
endfacet
facet normal 0.000000 0.999998 -0.002017
outer loop
vertex 1.759780 0.639000 0.124200
vertex 1.758220 0.639000 0.124200
vertex 1.758610 0.639000 0.124237
endloop
endfacet
facet normal 0.000000 1.000000 0.000000
outer loop
vertex 1.760170 0.639000 0.124139
vertex 1.758220 0.639000 0.124200
vertex 1.759780 0.639000 0.124200
endloop
endfacet
facet normal 0.000000 1.000000 0.000000
outer loop
vertex 1.760170 0.639000 0.124139
vertex 1.757830 0.639000 0.124139
vertex 1.758220 0.639000 0.124200
endloop
endfacet
facet normal 0.000000 1.000000 0.000000
outer loop
vertex 1.760550 0.639000 0.124053
vertex 1.757830 0.639000 0.124139
vertex 1.760170 0.639000 0.124139
endloop
endfacet
facet normal 0.000000 1.000000 0.000764
outer loop
vertex 1.760550 0.639000 0.124053
vertex 1.757450 0.639000 0.124053
vertex 1.757830 0.639000 0.124139
endloop
endfacet
facet normal 0.000000 1.000000 0.000000
outer loop
vertex 1.760930 0.639000 0.123943
vertex 1.757450 0.639000 0.124053
vertex 1.760550 0.639000 0.124053
endloop
endfacet
facet normal 0.000000 1.000000 0.000480
outer loop
vertex 1.760930 0.639000 0.123943
vertex 1.757070 0.639000 0.123943
vertex 1.757450 0.639000 0.124053
endloop
endfacet
facet normal 0.000000 1.000000 0.000000
outer loop
vertex 1.761300 0.639000 0.123811
vertex 1.757070 0.639000 0.123943
vertex 1.760930 0.639000 0.123943
endloop
endfacet
facet normal 0.000000 1.000000 0.000527
outer loop
vertex 1.761300 0.639000 0.123811
vertex 1.756700 0.639000 0.123811
vertex 1.757070 0.639000 0.123943
endloop
endfacet
facet normal 0.000000 1.000000 0.000000
outer loop
vertex 1.761660 0.639000 0.123654
vertex 1.756700 0.639000 0.123811
vertex 1.761300 0.639000 0.123811
endloop
endfacet
facet normal 0.000000 1.000000 -0.000209
outer loop
vertex 1.761660 0.639000 0.123654
vertex 1.756340 0.639000 0.123654
vertex 1.756700 0.639000 0.123811
endloop
endfacet
facet normal 0.000000 1.000000 0.000492
outer loop
vertex 1.762010 0.639000 0.123476
vertex 1.756340 0.639000 0.123654
vertex 1.761660 0.639000 0.123654
endloop
endfacet
facet normal 0.000000 1.000000 -0.000109
outer loop
vertex 1.762010 0.639000 0.123476
vertex 1.755990 0.639000 0.123476
vertex 1.756340 0.639000 0.123654
endloop
endfacet
facet normal 0.000000 1.000000 0.000000
outer loop
vertex 1.762350 0.639000 0.123277
vertex 1.755990 0.639000 0.123476
vertex 1.762010 0.639000 0.123476
endloop
endfacet
facet normal 0.000000 1.000000 0.000306
outer loop
vertex 1.762350 0.639000 0.123277
vertex 1.755650 0.639000 0.123277
vertex 1.755990 0.639000 0.123476
endloop
endfacet
facet normal 0.000000 1.000000 0.000000
outer loop
vertex 1.762670 0.639000 0.123055
vertex 1.755650 0.639000 0.123277
vertex 1.762350 0.639000 0.123277
endloop
endfacet
facet normal 0.000000 1.000000 -0.000018
outer loop
vertex 1.762670 0.639000 0.123055
vertex 1.755330 0.639000 0.123055
vertex 1.755650 0.639000 0.123277
endloop
endfacet
facet normal 0.000000 1.000000 0.000000
outer loop
vertex 1.762980 0.639000 0.122815
vertex 1.755330 0.639000 0.123055
vertex 1.762670 0.639000 0.123055
endloop
endfacet
facet normal 0.000000 1.000000 -0.000198
outer loop
vertex 1.762980 0.639000 0.122815
vertex 1.755020 0.639000 0.122815
vertex 1.755330 0.639000 0.123055
endloop
endfacet
facet normal 0.000000 1.000000 0.000000
outer loop
vertex 1.763280 0.639000 0.122556
vertex 1.755020 0.639000 0.122815
vertex 1.762980 0.639000 0.122815
endloop
endfacet
facet normal 0.000000 1.000000 0.000026
outer loop
vertex 1.763280 0.639000 0.122556
vertex 1.754720 0.639000 0.122556
vertex 1.755020 0.639000 0.122815
endloop
endfacet
facet normal 0.000000 1.000000 0.000000
outer loop
vertex 1.763560 0.639000 0.122278
vertex 1.754720 0.639000 0.122556
vertex 1.763280 0.639000 0.122556
endloop
endfacet
facet normal 0.000000 1.000000 0.000069
outer loop
vertex 1.763560 0.639000 0.122278
vertex 1.754440 0.639000 0.122278
vertex 1.754720 0.639000 0.122556
endloop
endfacet
facet normal 0.000000 1.000000 0.000000
outer loop
vertex 1.763820 0.639000 0.121983
vertex 1.754440 0.639000 0.122278
vertex 1.763560 0.639000 0.122278
endloop
endfacet
facet normal 0.000000 1.000000 -0.000235
outer loop
vertex 1.763820 0.639000 0.121983
vertex 1.754180 0.639000 0.121983
vertex 1.754440 0.639000 0.122278
endloop
endfacet
facet normal 0.000000 1.000000 0.000000
outer loop
vertex 1.764060 0.639000 0.121674
vertex 1.754180 0.639000 0.121983
vertex 1.763820 0.639000 0.121983
endloop
endfacet
facet normal 0.000000 1.000000 -0.000177
outer loop
vertex 1.764060 0.639000 0.121674
vertex 1.753940 0.639000 0.121674
vertex 1.754180 0.639000 0.121983
endloop
endfacet
facet normal 0.000000 1.000000 0.000282
outer loop
vertex 1.764280 0.639000 0.121348
vertex 1.753940 0.639000 0.121674
vertex 1.764060 0.639000 0.121674
endloop
endfacet
facet normal 0.000000 1.000000 -0.000127
outer loop
vertex 1.764280 0.639000 0.121348
vertex 1.753720 0.639000 0.121348
vertex 1.753940 0.639000 0.121674
endloop
endfacet
facet normal 0.000000 1.000000 0.000000
outer loop
vertex 1.764480 0.639000 0.121011
vertex 1.753720 0.639000 0.121348
vertex 1.764280 0.639000 0.121348
endloop
endfacet
facet normal 0.000000 1.000000 0.000016
outer loop
vertex 1.764480 0.639000 0.121011
vertex 1.753520 0.639000 0.121011
vertex 1.753720 0.639000 0.121348
endloop
endfacet
facet normal 0.000000 1.000000 0.000000
outer loop
vertex 1.764650 0.639000 0.120661
vertex 1.753520 0.639000 0.121011
vertex 1.764480 0.639000 0.121011
endloop
endfacet
facet normal 0.000000 1.000000 0.000037
outer loop
vertex 1.764650 0.639000 0.120661
vertex 1.753340 0.639000 0.120661
vertex 1.753520 0.639000 0.121011
endloop
endfacet
facet normal 0.000000 1.000000 0.000000
outer loop
vertex 1.764810 0.639000 0.120300
vertex 1.753340 0.639000 0.120661
vertex 1.764650 0.639000 0.120661
endloop
endfacet
facet normal 0.000000 1.000000 -0.000149
outer loop
vertex 1.764810 0.639000 0.120300
vertex 1.753190 0.639000 0.120300
vertex 1.753340 0.639000 0.120661
endloop
endfacet
facet normal 0.000000 1.000000 0.000217
outer loop
vertex 1.764940 0.639000 0.119931
vertex 1.753190 0.639000 0.120300
vertex 1.764810 0.639000 0.120300
endloop
endfacet
facet normal 0.000000 1.000000 -0.000030
outer loop
vertex 1.764940 0.639000 0.119931
vertex 1.753060 0.639000 0.119931
vertex 1.753190 0.639000 0.120300
endloop
endfacet
facet normal 0.000000 1.000000 0.000000
outer loop
vertex 1.765050 0.639000 0.119554
vertex 1.753060 0.639000 0.119931
vertex 1.764940 0.639000 0.119931
endloop
endfacet
facet normal 0.000000 1.000000 -0.000006
outer loop
vertex 1.765050 0.639000 0.119554
vertex 1.752950 0.639000 0.119554
vertex 1.753060 0.639000 0.119931
endloop
endfacet
facet normal 0.000000 1.000000 0.000000
outer loop
vertex 1.765140 0.639000 0.119171
vertex 1.752950 0.639000 0.119554
vertex 1.765050 0.639000 0.119554
endloop
endfacet
facet normal 0.000000 1.000000 -0.000183
outer loop
vertex 1.765140 0.639000 0.119171
vertex 1.752860 0.639000 0.119171
vertex 1.752950 0.639000 0.119554
endloop
endfacet
facet normal 0.000000 1.000000 0.000391
outer loop
vertex 1.765200 0.639000 0.118783
vertex 1.752860 0.639000 0.119171
vertex 1.765140 0.639000 0.119171
endloop
endfacet
facet normal 0.000000 1.000000 -0.000145
outer loop
vertex 1.765200 0.639000 0.118783
vertex 1.752800 0.639000 0.118783
vertex 1.752860 0.639000 0.119171
endloop
endfacet
facet normal 0.000000 1.000000 0.000000
outer loop
vertex 1.765240 0.639000 0.118392
vertex 1.752800 0.639000 0.118783
vertex 1.765200 0.639000 0.118783
endloop
endfacet
facet normal 0.000000 1.000000 0.000259
outer loop
vertex 1.765240 0.639000 0.118392
vertex 1.752760 0.639000 0.118392
vertex 1.752800 0.639000 0.118783
endloop
endfacet
facet normal 0.000000 1.000000 -0.000381
outer loop
vertex 1.765250 0.639000 0.118000
vertex 1.752760 0.639000 0.118392
vertex 1.765240 0.639000 0.118392
endloop
endfacet
facet normal 0.000000 1.000000 0.000179
outer loop
vertex 1.765250 0.639000 0.118000
vertex 1.752750 0.639000 0.118000
vertex 1.752760 0.639000 0.118392
endloop
endfacet
facet normal 0.000000 1.000000 0.000000
outer loop
vertex 1.765240 0.639000 0.117608
vertex 1.752750 0.639000 0.118000
vertex 1.765250 0.639000 0.118000
endloop
endfacet
facet normal 0.000000 1.000000 0.000201
outer loop
vertex 1.765240 0.639000 0.117608
vertex 1.752760 0.639000 0.117608
vertex 1.752750 0.639000 0.118000
endloop
endfacet
facet normal 0.000000 1.000000 -0.000382
outer loop
vertex 1.765200 0.639000 0.117217
vertex 1.752760 0.639000 0.117608
vertex 1.765240 0.639000 0.117608
endloop
endfacet
facet normal 0.000000 1.000000 0.000123
outer loop
vertex 1.765200 0.639000 0.117217
vertex 1.752800 0.639000 0.117217
vertex 1.752760 0.639000 0.117608
endloop
endfacet
facet normal 0.000000 1.000000 0.000000
outer loop
vertex 1.765140 0.639000 0.116829
vertex 1.752800 0.639000 0.117217
vertex 1.765200 0.639000 0.117217
endloop
endfacet
facet normal 0.000000 1.000000 -0.000244
outer loop
vertex 1.765140 0.639000 0.116829
vertex 1.752860 0.639000 0.116829
vertex 1.752800 0.639000 0.117217
endloop
endfacet
facet normal 0.000000 1.000000 0.000000
outer loop
vertex 1.765050 0.639000 0.116446
vertex 1.752860 0.639000 0.116829
vertex 1.765140 0.639000 0.116829
endloop
endfacet
facet normal 0.000000 1.000000 -0.000016
outer loop
vertex 1.765050 0.639000 0.116446
vertex 1.752950 0.639000 0.116446
vertex 1.752860 0.639000 0.116829
endloop
endfacet
facet normal 0.000000 1.000000 0.000000
outer loop
vertex 1.764940 0.639000 0.116069
vertex 1.752950 0.639000 0.116446
vertex 1.765050 0.639000 0.116446
endloop
endfacet
facet normal 0.000000 1.000000 0.000006
outer loop
vertex 1.764940 0.639000 0.116069
vertex 1.753060 0.639000 0.116069
vertex 1.752950 0.639000 0.116446
endloop
endfacet
facet normal 0.000000 1.000000 0.000000
outer loop
vertex 1.764810 0.639000 0.115700
vertex 1.753060 0.639000 0.116069
vertex 1.764940 0.639000 0.116069
endloop
endfacet
facet normal 0.000000 1.000000 -0.000187
outer loop
vertex 1.764810 0.639000 0.115700
vertex 1.753190 0.639000 0.115700
vertex 1.753060 0.639000 0.116069
endloop
endfacet
facet normal 0.000000 1.000000 0.000222
outer loop
vertex 1.764650 0.639000 0.115339
vertex 1.753190 0.639000 0.115700
vertex 1.764810 0.639000 0.115700
endloop
endfacet
facet normal 0.000000 1.000000 -0.000075
outer loop
vertex 1.764650 0.639000 0.115339
vertex 1.753340 0.639000 0.115339
vertex 1.753190 0.639000 0.115700
endloop
endfacet
facet normal 0.000000 1.000000 0.000000
outer loop
vertex 1.764480 0.639000 0.114989
vertex 1.753340 0.639000 0.115339
vertex 1.764650 0.639000 0.115339
endloop
endfacet
facet normal 0.000000 1.000000 -0.000038
outer loop
vertex 1.764480 0.639000 0.114989
vertex 1.753520 0.639000 0.114989
vertex 1.753340 0.639000 0.115339
endloop
endfacet
facet normal 0.000000 1.000000 0.000000
outer loop
vertex 1.764280 0.639000 0.114652
vertex 1.753520 0.639000 0.114989
vertex 1.764480 0.639000 0.114989
endloop
endfacet
facet normal 0.000000 1.000000 -0.000016
outer loop
vertex 1.764280 0.639000 0.114652
vertex 1.753720 0.639000 0.114652
vertex 1.753520 0.639000 0.114989
endloop
endfacet
facet normal 0.000000 1.000000 0.000000
outer loop
vertex 1.764060 0.639000 0.114326
vertex 1.753720 0.639000 0.114652
vertex 1.764280 0.639000 0.114652
endloop
endfacet
facet normal 0.000000 1.000000 -0.000150
outer loop
vertex 1.764060 0.639000 0.114326
vertex 1.753940 0.639000 0.114326
vertex 1.753720 0.639000 0.114652
endloop
endfacet
facet normal 0.000000 1.000000 0.000298
outer loop
vertex 1.763820 0.639000 0.114017
vertex 1.753940 0.639000 0.114326
vertex 1.764060 0.639000 0.114326
endloop
endfacet
facet normal 0.000000 1.000000 -0.000127
outer loop
vertex 1.763820 0.639000 0.114017
vertex 1.754180 0.639000 0.114017
vertex 1.753940 0.639000 0.114326
endloop
endfacet
facet normal 0.000000 1.000000 0.000327
outer loop
vertex 1.763560 0.639000 0.113722
vertex 1.754180 0.639000 0.114017
vertex 1.763820 0.639000 0.114017
endloop
endfacet
facet normal 0.000000 1.000000 -0.000097
outer loop
vertex 1.763560 0.639000 0.113722
vertex 1.754440 0.639000 0.113722
vertex 1.754180 0.639000 0.114017
endloop
endfacet
facet normal 0.000000 1.000000 0.000000
outer loop
vertex 1.763280 0.639000 0.113444
vertex 1.754440 0.639000 0.113722
vertex 1.763560 0.639000 0.113722
endloop
endfacet
facet normal 0.000000 1.000000 -0.000073
outer loop
vertex 1.763280 0.639000 0.113444
vertex 1.754720 0.639000 0.113444
vertex 1.754440 0.639000 0.113722
endloop
endfacet
facet normal 0.000000 1.000000 0.000000
outer loop
vertex 1.762980 0.639000 0.113185
vertex 1.754720 0.639000 0.113444
vertex 1.763280 0.639000 0.113444
endloop
endfacet
facet normal 0.000000 1.000000 -0.000028
outer loop
vertex 1.762980 0.639000 0.113185
vertex 1.755020 0.639000 0.113185
vertex 1.754720 0.639000 0.113444
endloop
endfacet
facet normal 0.000000 1.000000 0.000000
outer loop
vertex 1.762670 0.639000 0.112945
vertex 1.755020 0.639000 0.113185
vertex 1.762980 0.639000 0.113185
endloop
endfacet
facet normal 0.000000 1.000000 0.000215
outer loop
vertex 1.762670 0.639000 0.112945
vertex 1.755330 0.639000 0.112945
vertex 1.755020 0.639000 0.113185
endloop
endfacet
facet normal 0.000000 1.000000 0.000000
outer loop
vertex 1.762350 0.639000 0.112723
vertex 1.755330 0.639000 0.112945
vertex 1.762670 0.639000 0.112945
endloop
endfacet
facet normal 0.000000 1.000000 0.000020
outer loop
vertex 1.762350 0.639000 0.112723
vertex 1.755650 0.639000 0.112723
vertex 1.755330 0.639000 0.112945
endloop
endfacet
facet normal 0.000000 1.000000 0.000000
outer loop
vertex 1.762010 0.639000 0.112524
vertex 1.755650 0.639000 0.112723
vertex 1.762350 0.639000 0.112723
endloop
endfacet
facet normal 0.000000 1.000000 0.000049
outer loop
vertex 1.762010 0.639000 0.112524
vertex 1.755990 0.639000 0.112524
vertex 1.755650 0.639000 0.112723
endloop
endfacet
facet normal 0.000000 1.000000 0.000000
outer loop
vertex 1.761660 0.639000 0.112346
vertex 1.755990 0.639000 0.112524
vertex 1.762010 0.639000 0.112524
endloop
endfacet
facet normal 0.000000 1.000000 -0.000369
outer loop
vertex 1.761660 0.639000 0.112346
vertex 1.756340 0.639000 0.112346
vertex 1.755990 0.639000 0.112524
endloop
endfacet
facet normal 0.000000 1.000000 0.000000
outer loop
vertex 1.761300 0.639000 0.112189
vertex 1.756340 0.639000 0.112346
vertex 1.761660 0.639000 0.112346
endloop
endfacet
facet normal 0.000000 1.000000 0.000242
outer loop
vertex 1.761300 0.639000 0.112189
vertex 1.756700 0.639000 0.112189
vertex 1.756340 0.639000 0.112346
endloop
endfacet
facet normal 0.000000 1.000000 0.000000
outer loop
vertex 1.760930 0.639000 0.112057
vertex 1.756700 0.639000 0.112189
vertex 1.761300 0.639000 0.112189
endloop
endfacet
facet normal 0.000000 1.000000 0.000286
outer loop
vertex 1.760930 0.639000 0.112057
vertex 1.757070 0.639000 0.112057
vertex 1.756700 0.639000 0.112189
endloop
endfacet
facet normal 0.000000 0.999999 -0.001097
outer loop
vertex 1.760550 0.639000 0.111947
vertex 1.757070 0.639000 0.112057
vertex 1.760930 0.639000 0.112057
endloop
endfacet
facet normal 0.000000 1.000000 0.000768
outer loop
vertex 1.760550 0.639000 0.111947
vertex 1.757450 0.639000 0.111947
vertex 1.757070 0.639000 0.112057
endloop
endfacet
facet normal 0.000000 1.000000 0.000000
outer loop
vertex 1.760170 0.639000 0.111861
vertex 1.757450 0.639000 0.111947
vertex 1.760550 0.639000 0.111947
endloop
endfacet
facet normal 0.000000 1.000000 0.000145
outer loop
vertex 1.760170 0.639000 0.111861
vertex 1.757830 0.639000 0.111861
vertex 1.757450 0.639000 0.111947
endloop
endfacet
facet normal 0.000000 1.000000 0.000000
outer loop
vertex 1.759780 0.639000 0.111800
vertex 1.757830 0.639000 0.111861
vertex 1.760170 0.639000 0.111861
endloop
endfacet
facet normal 0.000000 1.000000 0.000000
outer loop
vertex 1.759780 0.639000 0.111800
vertex 1.758220 0.639000 0.111800
vertex 1.757830 0.639000 0.111861
endloop
endfacet
facet normal 0.000000 0.999992 0.004033
outer loop
vertex 1.759390 0.639000 0.111763
vertex 1.758220 0.639000 0.111800
vertex 1.759780 0.639000 0.111800
endloop
endfacet
facet normal 0.000000 1.000000 0.000000
outer loop
vertex 1.759390 0.639000 0.111763
vertex 1.758610 0.639000 0.111763
vertex 1.758220 0.639000 0.111800
endloop
endfacet
facet normal 0.000000 1.000000 0.000000
outer loop
vertex 1.758610 0.639000 0.111763
vertex 1.759390 0.639000 0.111763
vertex 1.759000 0.639000 0.111751
endloop
endfacet
endsolid Exported from Blender-2.78 (sub 0)
